{
	"patcher" : 	{
		"fileversion" : 1,
		"appversion" : 		{
			"major" : 7,
			"minor" : 3,
			"revision" : 5,
			"architecture" : "x64",
			"modernui" : 1
		}
,
		"rect" : [ 38.0, 79.0, 1208.0, 687.0 ],
		"bglocked" : 0,
		"openinpresentation" : 0,
		"default_fontsize" : 12.0,
		"default_fontface" : 0,
		"default_fontname" : "Arial",
		"gridonopen" : 1,
		"gridsize" : [ 15.0, 15.0 ],
		"gridsnaponopen" : 1,
		"objectsnaponopen" : 1,
		"statusbarvisible" : 2,
		"toolbarvisible" : 1,
		"lefttoolbarpinned" : 0,
		"toptoolbarpinned" : 0,
		"righttoolbarpinned" : 0,
		"bottomtoolbarpinned" : 0,
		"toolbars_unpinned_last_save" : 0,
		"tallnewobj" : 0,
		"boxanimatetime" : 200,
		"enablehscroll" : 1,
		"enablevscroll" : 1,
		"devicewidth" : 0.0,
		"description" : "",
		"digest" : "",
		"tags" : "",
		"style" : "",
		"subpatcher_template" : "Default Max 7",
		"boxes" : [ 			{
				"box" : 				{
					"id" : "obj-17",
					"maxclass" : "message",
					"numinlets" : 2,
					"numoutlets" : 1,
					"outlettype" : [ "" ],
					"patching_rect" : [ 54.0, 386.0, 100.0, 22.0 ],
					"style" : "",
					"text" : "exportimage png"
				}

			}
, 			{
				"box" : 				{
					"id" : "obj-3",
					"maxclass" : "newobj",
					"numinlets" : 1,
					"numoutlets" : 2,
					"outlettype" : [ "jit_matrix", "" ],
					"patching_rect" : [ 54.0, 435.0, 106.0, 22.0 ],
					"style" : "",
					"text" : "jit.matrix mgframe"
				}

			}
, 			{
				"box" : 				{
					"fontname" : "Lato Regular",
					"fontsize" : 16.0,
					"id" : "obj-78",
					"linecount" : 3,
					"maxclass" : "comment",
					"numinlets" : 1,
					"numoutlets" : 0,
					"patching_rect" : [ 25.0, 61.0, 499.0, 64.0 ],
					"style" : "",
					"text" : "The mouse's x position controls letter size while the mouse's y position controls its vertical placement. The keyboard selects the letter. Click a drag to draw. "
				}

			}
, 			{
				"box" : 				{
					"id" : "obj-44",
					"maxclass" : "newobj",
					"numinlets" : 1,
					"numoutlets" : 1,
					"outlettype" : [ "bang" ],
					"patching_rect" : [ 263.0, 187.0, 60.0, 22.0 ],
					"style" : "",
					"text" : "loadbang"
				}

			}
, 			{
				"box" : 				{
					"id" : "obj-41",
					"maxclass" : "newobj",
					"numinlets" : 2,
					"numoutlets" : 1,
					"outlettype" : [ "int" ],
					"patching_rect" : [ 646.055542, 386.0, 29.5, 22.0 ],
					"style" : "",
					"text" : "+ 1"
				}

			}
, 			{
				"box" : 				{
					"id" : "obj-40",
					"maxclass" : "newobj",
					"numinlets" : 3,
					"numoutlets" : 1,
					"outlettype" : [ "" ],
					"patching_rect" : [ 386.0, 524.0, 209.333313, 22.0 ],
					"style" : "",
					"text" : "switch 2"
				}

			}
, 			{
				"box" : 				{
					"id" : "obj-39",
					"maxclass" : "newobj",
					"numinlets" : 2,
					"numoutlets" : 1,
					"outlettype" : [ "" ],
					"patching_rect" : [ 576.333313, 386.0, 53.444458, 22.0 ],
					"style" : "",
					"text" : "join"
				}

			}
, 			{
				"box" : 				{
					"id" : "obj-38",
					"linecount" : 2,
					"maxclass" : "message",
					"numinlets" : 2,
					"numoutlets" : 1,
					"outlettype" : [ "" ],
					"patching_rect" : [ 576.333313, 453.0, 93.0, 35.0 ],
					"style" : "",
					"text" : "mousedragged $1 $2"
				}

			}
, 			{
				"box" : 				{
					"id" : "obj-36",
					"maxclass" : "newobj",
					"numinlets" : 1,
					"numoutlets" : 4,
					"outlettype" : [ "", "", "", "" ],
					"patching_rect" : [ 575.5, 345.0, 124.833313, 22.0 ],
					"style" : "",
					"text" : "unjoin 3"
				}

			}
, 			{
				"box" : 				{
					"id" : "obj-32",
					"linecount" : 2,
					"maxclass" : "message",
					"numinlets" : 2,
					"numoutlets" : 1,
					"outlettype" : [ "" ],
					"patching_rect" : [ 481.166656, 453.0, 88.0, 35.0 ],
					"style" : "",
					"text" : "mousemoved $1 $2"
				}

			}
, 			{
				"box" : 				{
					"id" : "obj-25",
					"maxclass" : "newobj",
					"numinlets" : 2,
					"numoutlets" : 2,
					"outlettype" : [ "", "" ],
					"patching_rect" : [ 390.0, 355.0, 57.0, 22.0 ],
					"style" : "",
					"text" : "zl.slice 2"
				}

			}
, 			{
				"box" : 				{
					"id" : "obj-18",
					"maxclass" : "newobj",
					"numinlets" : 3,
					"numoutlets" : 3,
					"outlettype" : [ "", "", "" ],
					"patching_rect" : [ 390.0, 309.0, 390.0, 22.0 ],
					"style" : "",
					"text" : "route mouseidle mouse"
				}

			}
, 			{
				"box" : 				{
					"id" : "obj-10",
					"maxclass" : "message",
					"numinlets" : 2,
					"numoutlets" : 1,
					"outlettype" : [ "" ],
					"patching_rect" : [ 263.0, 215.0, 146.0, 22.0 ],
					"style" : "",
					"text" : "sendwindow idlemouse 1"
				}

			}
, 			{
				"box" : 				{
					"id" : "obj-15",
					"maxclass" : "message",
					"numinlets" : 2,
					"numoutlets" : 1,
					"outlettype" : [ "" ],
					"patching_rect" : [ 469.0, 623.0, 89.0, 22.0 ],
					"style" : "",
					"text" : "keypressed $1"
				}

			}
, 			{
				"box" : 				{
					"id" : "obj-9",
					"maxclass" : "number",
					"numinlets" : 1,
					"numoutlets" : 2,
					"outlettype" : [ "", "bang" ],
					"parameter_enable" : 0,
					"patching_rect" : [ 469.0, 587.0, 50.0, 22.0 ],
					"style" : ""
				}

			}
, 			{
				"box" : 				{
					"id" : "obj-5",
					"maxclass" : "newobj",
					"numinlets" : 0,
					"numoutlets" : 4,
					"outlettype" : [ "int", "int", "int", "int" ],
					"patching_rect" : [ 469.0, 559.0, 92.5, 22.0 ],
					"style" : "",
					"text" : "key"
				}

			}
, 			{
				"box" : 				{
					"fontname" : "Lato Bold",
					"fontsize" : 36.0,
					"id" : "obj-7",
					"maxclass" : "comment",
					"numinlets" : 1,
					"numoutlets" : 0,
					"patching_rect" : [ 25.0, 9.0, 183.0, 50.0 ],
					"style" : "",
					"text" : "Hello, type"
				}

			}
, 			{
				"box" : 				{
					"id" : "obj-6",
					"maxclass" : "toggle",
					"numinlets" : 1,
					"numoutlets" : 1,
					"outlettype" : [ "int" ],
					"parameter_enable" : 0,
					"patching_rect" : [ 79.0, 205.0, 24.0, 24.0 ],
					"style" : ""
				}

			}
, 			{
				"box" : 				{
					"id" : "obj-4",
					"maxclass" : "newobj",
					"numinlets" : 1,
					"numoutlets" : 2,
					"outlettype" : [ "jit_matrix", "" ],
					"patching_rect" : [ 54.0, 538.0, 241.0, 22.0 ],
					"style" : "",
					"text" : "jit.gl.videoplane P_3_0 @transform_reset 2"
				}

			}
, 			{
				"box" : 				{
					"id" : "obj-2",
					"maxclass" : "newobj",
					"numinlets" : 1,
					"numoutlets" : 3,
					"outlettype" : [ "", "bang", "" ],
					"patching_rect" : [ 79.0, 247.0, 330.0, 22.0 ],
					"style" : "",
					"text" : "jit.world P_3_0 @floating 1 @size 500 500 @dim 500 500"
				}

			}
, 			{
				"box" : 				{
					"id" : "obj-1",
					"maxclass" : "newobj",
					"numinlets" : 1,
					"numoutlets" : 1,
					"outlettype" : [ "" ],
					"patching_rect" : [ 386.0, 559.0, 69.0, 22.0 ],
					"saved_object_attributes" : 					{
						"filename" : "P_3_0.js",
						"parameter_enable" : 0
					}
,
					"style" : "",
					"text" : "js P_3_0.js"
				}

			}
 ],
		"lines" : [ 			{
				"patchline" : 				{
					"destination" : [ "obj-2", 0 ],
					"source" : [ "obj-10", 0 ]
				}

			}
, 			{
				"patchline" : 				{
					"destination" : [ "obj-1", 0 ],
					"source" : [ "obj-15", 0 ]
				}

			}
, 			{
				"patchline" : 				{
					"destination" : [ "obj-3", 0 ],
					"source" : [ "obj-17", 0 ]
				}

			}
, 			{
				"patchline" : 				{
					"destination" : [ "obj-25", 0 ],
					"source" : [ "obj-18", 0 ]
				}

			}
, 			{
				"patchline" : 				{
					"destination" : [ "obj-36", 0 ],
					"source" : [ "obj-18", 1 ]
				}

			}
, 			{
				"patchline" : 				{
					"destination" : [ "obj-18", 0 ],
					"source" : [ "obj-2", 2 ]
				}

			}
, 			{
				"patchline" : 				{
					"destination" : [ "obj-3", 0 ],
					"midpoints" : [ 244.0, 420.0, 63.5, 420.0 ],
					"source" : [ "obj-2", 1 ]
				}

			}
, 			{
				"patchline" : 				{
					"destination" : [ "obj-32", 0 ],
					"midpoints" : [ 399.5, 404.0, 490.666656, 404.0 ],
					"source" : [ "obj-25", 0 ]
				}

			}
, 			{
				"patchline" : 				{
					"destination" : [ "obj-4", 0 ],
					"source" : [ "obj-3", 0 ]
				}

			}
, 			{
				"patchline" : 				{
					"destination" : [ "obj-40", 1 ],
					"source" : [ "obj-32", 0 ]
				}

			}
, 			{
				"patchline" : 				{
					"destination" : [ "obj-39", 1 ],
					"source" : [ "obj-36", 1 ]
				}

			}
, 			{
				"patchline" : 				{
					"destination" : [ "obj-39", 0 ],
					"source" : [ "obj-36", 0 ]
				}

			}
, 			{
				"patchline" : 				{
					"destination" : [ "obj-41", 0 ],
					"source" : [ "obj-36", 2 ]
				}

			}
, 			{
				"patchline" : 				{
					"destination" : [ "obj-40", 2 ],
					"source" : [ "obj-38", 0 ]
				}

			}
, 			{
				"patchline" : 				{
					"destination" : [ "obj-38", 0 ],
					"source" : [ "obj-39", 0 ]
				}

			}
, 			{
				"patchline" : 				{
					"destination" : [ "obj-1", 0 ],
					"source" : [ "obj-40", 0 ]
				}

			}
, 			{
				"patchline" : 				{
					"destination" : [ "obj-40", 0 ],
					"midpoints" : [ 655.555542, 434.0, 395.5, 434.0 ],
					"source" : [ "obj-41", 0 ]
				}

			}
, 			{
				"patchline" : 				{
					"destination" : [ "obj-10", 0 ],
					"source" : [ "obj-44", 0 ]
				}

			}
, 			{
				"patchline" : 				{
					"destination" : [ "obj-9", 0 ],
					"source" : [ "obj-5", 0 ]
				}

			}
, 			{
				"patchline" : 				{
					"destination" : [ "obj-2", 0 ],
					"source" : [ "obj-6", 0 ]
				}

			}
, 			{
				"patchline" : 				{
					"destination" : [ "obj-15", 0 ],
					"source" : [ "obj-9", 0 ]
				}

			}
 ],
		"dependency_cache" : [ 			{
				"name" : "P_3_0.js",
				"bootpath" : "~/Documents/Generative_Design_MaxMSP/P_3_Hello_Type/P_3_0_Hello_type",
				"patcherrelativepath" : ".",
				"type" : "TEXT",
				"implicit" : 1
			}
 ],
		"autosave" : 0,
		"bgfillcolor_type" : "gradient",
		"bgfillcolor_color1" : [ 0.376471, 0.384314, 0.4, 1.0 ],
		"bgfillcolor_color2" : [ 0.290196, 0.309804, 0.301961, 1.0 ],
		"bgfillcolor_color" : [ 0.290196, 0.309804, 0.301961, 1.0 ],
		"bgfillcolor_angle" : 270.0,
		"bgfillcolor_proportion" : 0.39
	}

}
